/* XPM */
static char * test_simple_xpm[] = {
"80 80 8 1",
" 	c #FFFFFF",
".	c #000000",
"+	c #FF0000",
"@	c #FFFF00",
"#	c #00FF00",
"$	c #888888",
"%	c #0000FF",
"&	c #CCCCCC",
"                              ....................                              ",
"                              .++++++++++++++++++.                              ",
"                              .++++++++++++++++++.                              ",
"                              .++++++++++++++++++.                              ",
"                              .++++++++++++++++++.                              ",
"                              .++++++++++++++++++.                              ",
"                              .++++++++++++++++++.                              ",
"                              .++++++++++++++++++.                              ",
"                              .++++++++++++++++++.                              ",
"                              .++++++++++++++++++.                              ",
"                              .++++++++++++++++++.                              ",
"                              .++++++++++++++++++.                              ",
"                              .++++++++++++++++++.                              ",
"                              .++++++++++++++++++.                              ",
"                              .++++++++++++++++++.                              ",
"                              .++++++++++++++++++.                              ",
"                              .++++++++++++++++++.                              ",
"                              .++++++++++++++++++.                              ",
"                              .++++++++++++++++++.                              ",
"                              ....................                              ",
"                              ....................                              ",
"                              .@@@@@@@@@@@@@@@@@@.                              ",
"                              .@@@@@@@@@@@@@@@@@@.                              ",
"                              .@@@@@@@@@@@@@@@@@@.                              ",
"                              .@@@@@@@@@@@@@@@@@@.                              ",
"                              .@@@@@@@@@@@@@@@@@@.                              ",
"                              .@@@@@@@@@@@@@@@@@@.                              ",
"                              .@@@@@@@@@@@@@@@@@@.                              ",
"                              .@@@@@@@@@@@@@@@@@@.                              ",
"                              .@@@@@@@@@@@@@@@@@@.                              ",
"                              .@@@@@@@@@@@@@@@@@@.                              ",
"                              .@@@@@@@@@@@@@@@@@@.                              ",
"                              .@@@@@@@@@@@@@@@@@@.                              ",
"                              .@@@@@@@@@@@@@@@@@@.                              ",
"                              .@@@@@@@@@@@@@@@@@@.                              ",
"                              .@@@@@@@@@@@@@@@@@@.                              ",
"                              .@@@@@@@@@@@@@@@@@@.                              ",
"                              .@@@@@@@@@@@@@@@@@@.                              ",
"                              .@@@@@@@@@@@@@@@@@@.                              ",
"                              ....................                              ",
"                              ....................                              ",
"                              .##################.                              ",
"                              .##################.                              ",
"                              .##################.                              ",
"                              .##################.                              ",
"                              .##################.                              ",
"                              .##################.                              ",
"                              .##################.                              ",
"                              .##################.                              ",
"                              .##################.                              ",
"                              .##################.                              ",
"                              .##################.                              ",
"                              .##################.                              ",
"                              .##################.                              ",
"                              .##################.                              ",
"                              .##################.                              ",
"                              .##################.                              ",
"                              .##################.                              ",
"                              .##################.                              ",
"                              ....................                              ",
"          ............................................................          ",
"          .$$$$$$$$$$$$$$$$$$..%%%%%%%%%%%%%%%%%%..&&&&&&&&&&&&&&&&&&.          ",
"          .$$$$$$$$$$$$$$$$$$..%%%%%%%%%%%%%%%%%%..&&&&&&&&&&&&&&&&&&.          ",
"          .$$$$$$$$$$$$$$$$$$..%%%%%%%%%%%%%%%%%%..&&&&&&&&&&&&&&&&&&.          ",
"          .$$$$$$$$$$$$$$$$$$..%%%%%%%%%%%%%%%%%%..&&&&&&&&&&&&&&&&&&.          ",
"          .$$$$$$$$$$$$$$$$$$..%%%%%%%%%%%%%%%%%%..&&&&&&&&&&&&&&&&&&.          ",
"          .$$$$$$$$$$$$$$$$$$..%%%%%%%%%%%%%%%%%%..&&&&&&&&&&&&&&&&&&.          ",
"          .$$$$$$$$$$$$$$$$$$..%%%%%%%%%%%%%%%%%%..&&&&&&&&&&&&&&&&&&.          ",
"          .$$$$$$$$$$$$$$$$$$..%%%%%%%%%%%%%%%%%%..&&&&&&&&&&&&&&&&&&.          ",
"          .$$$$$$$$$$$$$$$$$$..%%%%%%%%%%%%%%%%%%..&&&&&&&&&&&&&&&&&&.          ",
"          .$$$$$$$$$$$$$$$$$$..%%%%%%%%%%%%%%%%%%..&&&&&&&&&&&&&&&&&&.          ",
"          .$$$$$$$$$$$$$$$$$$..%%%%%%%%%%%%%%%%%%..&&&&&&&&&&&&&&&&&&.          ",
"          .$$$$$$$$$$$$$$$$$$..%%%%%%%%%%%%%%%%%%..&&&&&&&&&&&&&&&&&&.          ",
"          .$$$$$$$$$$$$$$$$$$..%%%%%%%%%%%%%%%%%%..&&&&&&&&&&&&&&&&&&.          ",
"          .$$$$$$$$$$$$$$$$$$..%%%%%%%%%%%%%%%%%%..&&&&&&&&&&&&&&&&&&.          ",
"          .$$$$$$$$$$$$$$$$$$..%%%%%%%%%%%%%%%%%%..&&&&&&&&&&&&&&&&&&.          ",
"          .$$$$$$$$$$$$$$$$$$..%%%%%%%%%%%%%%%%%%..&&&&&&&&&&&&&&&&&&.          ",
"          .$$$$$$$$$$$$$$$$$$..%%%%%%%%%%%%%%%%%%..&&&&&&&&&&&&&&&&&&.          ",
"          .$$$$$$$$$$$$$$$$$$..%%%%%%%%%%%%%%%%%%..&&&&&&&&&&&&&&&&&&.          ",
"          ............................................................          "};
