<?xml version="1.0" encoding="UTF-8" standalone="no"?>
<!-- Generator: Adobe Illustrator 22.0.1, SVG Export Plug-In . SVG Version: 6.00 Build 0)  -->

<svg
   xmlns:dc="http://purl.org/dc/elements/1.1/"
   xmlns:cc="http://creativecommons.org/ns#"
   xmlns:rdf="http://www.w3.org/1999/02/22-rdf-syntax-ns#"
   xmlns:svg="http://www.w3.org/2000/svg"
   xmlns="http://www.w3.org/2000/svg"
   xmlns:sodipodi="http://sodipodi.sourceforge.net/DTD/sodipodi-0.dtd"
   xmlns:inkscape="http://www.inkscape.org/namespaces/inkscape"
   version="1.1"
   id="Layer_1"
   x="0px"
   y="0px"
   viewBox="0 0 170.66667 170.66667"
   xml:space="preserve"
   sodipodi:docname="clear_icon.svg"
   inkscape:version="0.92.2 (5c3e80d, 2017-08-06)"
   width="128pt"
   height="128pt"
   inkscape:export-filename="C:\Projects\VisualStudioQtQmlTest\VisualStudioTest\resources\graphics\clear_icon.png"
   inkscape:export-xdpi="72"
   inkscape:export-ydpi="72"><metadata
     id="metadata4568"><rdf:RDF><cc:Work
         rdf:about=""><dc:format>image/svg+xml</dc:format><dc:type
           rdf:resource="http://purl.org/dc/dcmitype/StillImage" /><dc:title /></cc:Work></rdf:RDF></metadata><defs
     id="defs4566" /><sodipodi:namedview
     pagecolor="#ffffff"
     bordercolor="#666666"
     borderopacity="1"
     objecttolerance="10"
     gridtolerance="10"
     guidetolerance="10"
     inkscape:pageopacity="0"
     inkscape:pageshadow="2"
     inkscape:window-width="1920"
     inkscape:window-height="1137"
     id="namedview4564"
     showgrid="false"
     inkscape:zoom="2.6971428"
     inkscape:cx="15.30656"
     inkscape:cy="107.59075"
     inkscape:window-x="1912"
     inkscape:window-y="-8"
     inkscape:window-maximized="1"
     inkscape:current-layer="Layer_1"
     inkscape:document-units="pt"
     units="pt"
     inkscape:pagecheckerboard="true"
     fit-margin-top="0"
     fit-margin-left="0"
     fit-margin-right="0"
     fit-margin-bottom="0" /><style
     type="text/css"
     id="style4557">
	.st0{fill:#0000FF;}
</style><path
     class="st0"
     d="M 150.3,-25.733336"
     id="path4561"
     inkscape:connector-curvature="0"
     style="fill:#0000ff" /><path
     style="fill:#ffffff;fill-opacity:1;stroke:none;stroke-width:1.48059404;stroke-opacity:0"
     d="M 85.333984 0 A 85.333337 85.333337 0 0 0 0 85.333984 A 85.333337 85.333337 0 0 0 85.333984 170.66602 A 85.333337 85.333337 0 0 0 170.66602 85.333984 A 85.333337 85.333337 0 0 0 85.333984 0 z M 130.58789 29.400391 C 133.31474 29.400391 136.04159 30.445893 138.13086 32.535156 C 142.30939 36.713684 142.30939 43.442564 138.13086 47.621094 L 100.41797 85.332031 L 138.13086 123.04492 C 142.30939 127.22346 142.30939 133.95233 138.13086 138.13086 C 133.95233 142.30939 127.22346 142.30939 123.04492 138.13086 L 85.332031 100.41797 L 47.621094 138.13086 C 43.442564 142.30939 36.713684 142.30939 32.535156 138.13086 C 28.356629 133.95233 28.356626 127.22345 32.535156 123.04492 L 70.246094 85.332031 L 32.535156 47.621094 C 28.356626 43.442564 28.356626 36.713686 32.535156 32.535156 C 34.624421 30.445891 37.351521 29.402344 40.078125 29.402344 C 42.804729 29.402344 45.531829 30.445891 47.621094 32.535156 L 85.332031 70.246094 L 123.04492 32.535156 C 125.13419 30.445891 127.86104 29.40039 130.58789 29.400391 z "
     id="path816" /></svg>