<?xml version="1.0" encoding="UTF-8" standalone="no"?>
<!-- Generator: Adobe Illustrator 22.0.1, SVG Export Plug-In . SVG Version: 6.00 Build 0)  -->

<svg
   xmlns:dc="http://purl.org/dc/elements/1.1/"
   xmlns:cc="http://creativecommons.org/ns#"
   xmlns:rdf="http://www.w3.org/1999/02/22-rdf-syntax-ns#"
   xmlns:svg="http://www.w3.org/2000/svg"
   xmlns="http://www.w3.org/2000/svg"
   xmlns:sodipodi="http://sodipodi.sourceforge.net/DTD/sodipodi-0.dtd"
   xmlns:inkscape="http://www.inkscape.org/namespaces/inkscape"
   version="1.1"
   id="Layer_1"
   x="0px"
   y="0px"
   viewBox="0 0 170.66667 170.66668"
   xml:space="preserve"
   sodipodi:docname="nvidia_icon.svg"
   inkscape:version="0.92.3 (2405546, 2018-03-11)"
   width="128pt"
   height="128pt"
   inkscape:export-filename="\\netapp-deb\yedi\krohmer\discovery\research\mdl_browser\resources\graphics\nvidia_icon.png"
   inkscape:export-xdpi="72"
   inkscape:export-ydpi="72"><metadata
     id="metadata4568"><rdf:RDF><cc:Work
         rdf:about=""><dc:format>image/svg+xml</dc:format><dc:type
           rdf:resource="http://purl.org/dc/dcmitype/StillImage" /><dc:title></dc:title></cc:Work></rdf:RDF></metadata><defs
     id="defs4566" /><sodipodi:namedview
     pagecolor="#ffffff"
     bordercolor="#666666"
     borderopacity="1"
     objecttolerance="10"
     gridtolerance="10"
     guidetolerance="10"
     inkscape:pageopacity="0"
     inkscape:pageshadow="2"
     inkscape:window-width="1920"
     inkscape:window-height="1137"
     id="namedview4564"
     showgrid="false"
     inkscape:zoom="3.8143359"
     inkscape:cx="90.282966"
     inkscape:cy="84.099326"
     inkscape:window-x="1912"
     inkscape:window-y="-8"
     inkscape:window-maximized="1"
     inkscape:current-layer="Layer_1"
     inkscape:document-units="pt"
     units="pt"
     inkscape:pagecheckerboard="true"
     fit-margin-top="0"
     fit-margin-left="0"
     fit-margin-right="0"
     fit-margin-bottom="0" /><style
     type="text/css"
     id="style4557">
	.st0{fill:#0000FF;}
</style><path
     class="st0"
     d="M 150.3,2.1256715"
     id="path4561"
     inkscape:connector-curvature="0"
     style="fill:#0000ff" /><path
     style="fill:#76b900;fill-opacity:1;stroke-width:0.47136495"
     d="m 64.13819,134.87536 v -6.42844 l 3.4174,0.30719 c 1.87956,0.16895 6.17487,0.0885 9.54514,-0.1788 20.32267,-1.61181 46.01531,-8.76686 64.57699,-17.98382 6.11392,-3.03591 16.73293,-9.63049 16.7333,-10.39163 2.5e-4,-0.539339 -3.58273,-2.816819 -10.60556,-6.741259 -3.62951,-2.02823 -7.18466,-4.09327 -7.90033,-4.58899 l -1.30123,-0.90132 -5.0622,4.20484 C 111.5799,110.41537 95.43156,117.82665 74.18645,119.4142 c -2.38059,0.1779 -5.66837,0.17994 -7.30615,0.005 l -2.97779,-0.3189 v -4.40431 -4.40431 l 1.41409,0.16786 c 5.03182,0.59731 6.4412,0.62026 10.47413,0.17057 11.61989,-1.2957 24.35434,-7.41103 37.84077,-18.171899 4.80232,-3.83178 17.4405,-16.34764 17.4405,-17.27169 0,-0.91025 -8.90328,-9.858052 -13.38611,-13.453042 C 107.13776,53.274414 96.19715,47.673374 84.85981,44.92818 79.37022,43.59895 69.68383,42.55913 66.4066,42.947269 l -2.26841,0.26849 v -7.284264 -7.283953 h 53.26423 53.26424 V 84.975651 141.30376 H 117.40242 64.13819 Z m -8.11883,-8.17454 C 50.29033,125.49285 46.2879,124.12165 40.80563,121.48876 24.92414,113.86156 12.0759,100.25577 2.7646,81.204771 L 0,75.548391 2.72662,73.023131 C 6.53566,69.495389 15.44891,62.839139 20.77261,59.546699 35.00106,50.747134 47.7056,45.859546 61.19216,43.996816 l 2.0033,-0.276696 v 3.791286 c 0,2.635152 -0.17968,3.839098 -0.5892,3.948098 -0.32407,0.0862 -2.71035,0.49298 -5.30286,0.90386 -14.10484,2.23547 -29.0194,10.783115 -38.43237,22.025877 -1.89416,2.26236 -1.93126,2.37278 -1.37735,4.09889 1.04878,3.26823 5.12027,11.20446 7.9343,15.4657 5.91499,8.956979 12.94114,15.639019 21.16931,20.132549 3.92334,2.14261 11.06184,4.69097 14.83055,5.29435 l 1.76762,0.283 v 3.98524 3.98524 l -1.53193,-0.0332 c -0.84257,-0.0183 -3.38245,-0.42334 -5.64417,-0.90024 z M 60.128,108.84393 C 47.40516,105.19906 37.24247,95.248591 31.58596,80.897951 l -0.95635,-2.42629 1.31708,-1.40826 c 2.17616,-2.32681 8.17663,-6.598279 12.23547,-8.709922 4.63171,-2.40969 12.6367,-5.14797 16.3122,-5.57995 l 2.7011,-0.31746 v 4.00816 4.008173 l -3.32024,0.237559 c -4.06928,0.29116 -8.66022,2.42243 -13.09079,6.07722 -3.47086,2.86313 -3.46354,2.74652 -0.54876,8.72588 3.43685,7.05035 8.4982,12.44684 14.48512,15.444329 l 2.47467,1.239 v 3.76298 c 0,2.06964 -0.053,3.74787 -0.11784,3.7294 -0.0648,-0.0185 -1.39215,-0.39865 -2.94962,-0.84484 z m 5.55472,-6.71615 -1.51934,-0.43906 -0.13044,-15.260629 -0.13043,-15.26061 1.64978,0.2537 c 6.00451,0.92338 9.76934,3.97244 14.57847,11.80683 1.63793,2.66829 3.13224,4.78944 3.3207,4.71366 0.94502,-0.38001 14.560366,-11.99494 14.590266,-12.44662 0.019,-0.28858 -0.972806,-1.46398 -2.204246,-2.61199 C 87.5633,65.169499 79.07291,61.529369 69.20536,61.464969 l -5.06717,-0.0331 v -4.599055 c 0,-4.54245 0.0149,-4.60278 1.20787,-4.9022 1.9574,-0.49128 9.5289,0.28931 14.13179,1.45693 10.68147,2.70958 21.51499,9.408715 29.85855,18.463647 2.52697,2.74242 3.21557,3.77588 2.90084,4.35365 -0.83628,1.53522 -8.90767,10.27329 -12.07343,13.07066 -7.2694,6.42347 -15.07209,11.065009 -21.24566,12.638279 -3.17325,0.80867 -10.75351,0.93121 -13.23543,0.21398 z"
     id="path50"
     inkscape:connector-curvature="0"
     sodipodi:nodetypes="cccsscsccsscccccsssssccccccccccccsscssccscssssssccccccsscccscccccsscscsccccsccccccscsscsccc" /></svg>