{
    "asset": {
        "version": "2.0"
    },
    "scene": 0,
    "scenes": [
        {
            "nodes": [
                0,
                1
            ]
        }
    ],
    "nodes": [
        {
            "name": "Mesh",
            "matrix": [
                1.0,
                0.0,
                0.0,
                0.0,
                0.0,
                1.0,
                0.0,
                0.0,
                0.0,
                0.0,
                1.0,
                0.0,
                0.0,
                0.0,
                0.0,
                1.0
            ],
            "mesh": 0
        },
        {
            "name": "Camera",
            "matrix": [
                1.0,
                0.0,
                0.0,
                0.0,
                0.0,
                1.0,
                0.0,
                0.0,
                0.0,
                0.0,
                1.0,
                0.0,
                0.0,
                0.0,
                3.0,
                1.0
            ],
            "camera": 0
        }
    ],
    "meshes": [
        {
            "primitives": [
                {
                    "indices": 1,
                    "mode": 4,
                    "material": 0,
                    "attributes": {
                        "POSITION": 0,
                        "NORMAL": 2,
                        "TEXCOORD_0": 3
                    }
                }
            ]
        }
    ],
    "buffers": [
        {
            "byteLength": 1381856,
            "uri": "sphere.bin"
        }
    ],
    "bufferViews": [
        {
            "buffer": 0,
            "byteLength": 298740
        },
        {
            "buffer": 0,
            "byteLength": 585216,
            "byteOffset": 298740
        },
        {
            "buffer": 0,
            "byteLength": 298740,
            "byteOffset": 883956
        },
        {
            "buffer": 0,
            "byteLength": 199160,
            "byteOffset": 1182696
        }
    ],
    "accessors": [
        {
            "bufferView": 0,
            "type": "VEC3",
            "componentType": 5126,
            "count": 24895,
            "min": [
                -1.0,
                -1.0,
                -1.0
            ],
            "max": [
                1.0,
                1.0,
                1.0
            ]
        },
        {
            "bufferView": 1,
            "type": "SCALAR",
            "componentType": 5125,
            "count": 146304
        },
        {
            "bufferView": 2,
            "type": "VEC3",
            "componentType": 5126,
            "count": 24895
        },
        {
            "bufferView": 3,
            "type": "VEC2",
            "componentType": 5126,
            "count": 24895
        }
    ],
    "materials": [
        {
            "name": "::nvidia::sdk_examples::tutorials::dxr_sphere_mat"
        }
    ],
    "cameras": [
        {
            "name": "Camera",
            "type": "perspective",
            "perspective": {
                "znear": 0.01,
                "yfov": 0.7853982
            }
        }
    ]
}