<?xml version="1.0" encoding="UTF-8" standalone="no"?>
<!-- Generator: Adobe Illustrator 22.0.1, SVG Export Plug-In . SVG Version: 6.00 Build 0)  -->

<svg
   xmlns:dc="http://purl.org/dc/elements/1.1/"
   xmlns:cc="http://creativecommons.org/ns#"
   xmlns:rdf="http://www.w3.org/1999/02/22-rdf-syntax-ns#"
   xmlns:svg="http://www.w3.org/2000/svg"
   xmlns="http://www.w3.org/2000/svg"
   xmlns:sodipodi="http://sodipodi.sourceforge.net/DTD/sodipodi-0.dtd"
   xmlns:inkscape="http://www.inkscape.org/namespaces/inkscape"
   version="1.1"
   id="Layer_1"
   x="0px"
   y="0px"
   viewBox="0 0 170.66667 170.66667"
   xml:space="preserve"
   sodipodi:docname="info_icon.svg"
   inkscape:version="0.92.2 (5c3e80d, 2017-08-06)"
   width="128pt"
   height="128pt"
   inkscape:export-filename="C:\Projects\neuray\discovery\research\mdl_browser\resources\graphics\info_icon.png"
   inkscape:export-xdpi="72"
   inkscape:export-ydpi="72"><metadata
     id="metadata4568"><rdf:RDF><cc:Work
         rdf:about=""><dc:format>image/svg+xml</dc:format><dc:type
           rdf:resource="http://purl.org/dc/dcmitype/StillImage" /><dc:title></dc:title></cc:Work></rdf:RDF></metadata><defs
     id="defs4566" /><sodipodi:namedview
     pagecolor="#ffffff"
     bordercolor="#666666"
     borderopacity="1"
     objecttolerance="10"
     gridtolerance="10"
     guidetolerance="10"
     inkscape:pageopacity="0"
     inkscape:pageshadow="2"
     inkscape:window-width="1920"
     inkscape:window-height="1137"
     id="namedview4564"
     showgrid="false"
     inkscape:zoom="1.907168"
     inkscape:cx="19.581952"
     inkscape:cy="83.918598"
     inkscape:window-x="1912"
     inkscape:window-y="-8"
     inkscape:window-maximized="1"
     inkscape:current-layer="Layer_1"
     inkscape:document-units="pt"
     units="pt"
     inkscape:pagecheckerboard="true"
     fit-margin-top="0"
     fit-margin-left="0"
     fit-margin-right="0"
     fit-margin-bottom="0" /><style
     type="text/css"
     id="style4557">
	.st0{fill:#0000FF;}
</style><path
     class="st0"
     d="M 150.3,-25.733336"
     id="path4561"
     inkscape:connector-curvature="0"
     style="fill:#0000ff" /><path
     style="fill:#ffffff;fill-opacity:1;stroke:none;stroke-width:1.48059404;stroke-opacity:0"
     d="M 85.333984 0 C 38.205178 -0.00035733342 -0.00035733342 38.205178 0 85.333984 C 0.00071851722 132.46203 38.205939 170.66638 85.333984 170.66602 C 132.46127 170.6653 170.6653 132.46127 170.66602 85.333984 C 170.66638 38.205939 132.46203 0.00071851722 85.333984 0 z M 85.333984 16 A 69.333337 69.333337 0 0 1 154.66602 85.333984 A 69.333337 69.333337 0 0 1 85.333984 154.66602 A 69.333337 69.333337 0 0 1 16 85.333984 A 69.333337 69.333337 0 0 1 85.333984 16 z "
     id="path816" /><path
     inkscape:connector-curvature="0"
     id="path825"
     style="font-style:normal;font-variant:normal;font-weight:normal;font-stretch:normal;font-size:160px;line-height:1.25;font-family:'Monotype Corsiva';-inkscape-font-specification:'Monotype Corsiva';letter-spacing:0px;word-spacing:0px;fill:#ffffff;fill-opacity:1;stroke:none;stroke-width:1.53629911"
     d="m 101.65444,29.012284 c 2.83986,0 5.17588,0.733844 7.00804,2.20153 1.83217,1.397797 2.74825,3.214933 2.74825,5.451409 0,3.075157 -1.41993,5.800863 -4.25979,8.177118 -2.74825,2.306359 -5.86294,3.45954 -9.344047,3.45954 -2.748251,0 -5.038459,-0.733842 -6.870627,-2.201523 -1.832167,-1.467692 -2.74825,-3.389664 -2.74825,-5.765919 0,-3.145043 1.32832,-5.800857 3.984963,-7.967442 2.656643,-2.236476 5.817131,-3.354713 9.481461,-3.354713 z m -48.607051,57.2635 -6.046151,-3.564382 c 9.160835,-7.687883 17.497196,-13.139291 25.009081,-16.354223 7.603494,-3.284818 14.061883,-4.927227 19.375167,-4.927227 2.931468,0 5.175872,0.489228 6.733214,1.467686 1.557342,0.978459 2.33601,2.306365 2.33601,3.983721 0,2.026801 -2.977268,10.623252 -8.931811,25.789353 -9.710486,24.810888 -11.337863,30.972308 -11.337863,36.074278 0,0.97846 0.32063,1.81714 0.961888,2.51603 0.641258,0.62901 1.32832,0.94351 2.061188,0.94351 2.931467,0 10.443352,-4.33318 22.535658,-12.99951 l 5.35908,3.98372 c -12.550339,9.01579 -21.711175,14.78171 -27.482501,17.29774 -5.771326,2.51604 -10.489157,3.77405 -14.153491,3.77405 -3.206292,0 -5.771326,-0.76879 -7.695101,-2.30636 -1.832168,-1.53758 -2.748251,-3.66923 -2.748251,-6.39493 0,-8.73622 3.642761,-21.29256 17.384014,-55.25903 0.641258,-1.607471 0.961888,-3.040215 0.961888,-4.298233 0,-1.397797 -0.824475,-2.096695 -2.473426,-2.096695 -1.832167,0 -3.939159,0.559119 -6.320976,1.677357 -2.290208,1.118236 -7.466082,4.682618 -15.527617,10.693145 z"
     sodipodi:nodetypes="scscscscscccssscscsccsscscsscc"
     inkscape:transform-center-x="3.1460261"
     inkscape:transform-center-y="-0.52433768" /></svg>