<?xml version="1.0" encoding="UTF-8" standalone="no"?>
<!-- Generator: Adobe Illustrator 22.0.1, SVG Export Plug-In . SVG Version: 6.00 Build 0)  -->

<svg
   xmlns:dc="http://purl.org/dc/elements/1.1/"
   xmlns:cc="http://creativecommons.org/ns#"
   xmlns:rdf="http://www.w3.org/1999/02/22-rdf-syntax-ns#"
   xmlns:svg="http://www.w3.org/2000/svg"
   xmlns="http://www.w3.org/2000/svg"
   xmlns:sodipodi="http://sodipodi.sourceforge.net/DTD/sodipodi-0.dtd"
   xmlns:inkscape="http://www.inkscape.org/namespaces/inkscape"
   version="1.1"
   id="Layer_1"
   x="0px"
   y="0px"
   viewBox="0 0 170.66667 170.66668"
   xml:space="preserve"
   sodipodi:docname="nvidia_icon.svg"
   inkscape:version="0.92.3 (2405546, 2018-03-11)"
   width="128pt"
   height="128pt"
   inkscape:export-filename="\\netapp-deb\yedi\krohmer\discovery\research\mdl_browser\resources\graphics\nvidia_icon.png"
   inkscape:export-xdpi="72"
   inkscape:export-ydpi="72"><metadata
     id="metadata4568"><rdf:RDF><cc:Work
         rdf:about=""><dc:format>image/svg+xml</dc:format><dc:type
           rdf:resource="http://purl.org/dc/dcmitype/StillImage" /><dc:title /></cc:Work></rdf:RDF></metadata><defs
     id="defs4566" /><sodipodi:namedview
     pagecolor="#ffffff"
     bordercolor="#666666"
     borderopacity="1"
     objecttolerance="10"
     gridtolerance="10"
     guidetolerance="10"
     inkscape:pageopacity="0"
     inkscape:pageshadow="2"
     inkscape:window-width="1920"
     inkscape:window-height="1137"
     id="namedview4564"
     showgrid="false"
     inkscape:zoom="2.6971428"
     inkscape:cx="25.781907"
     inkscape:cy="92.056825"
     inkscape:window-x="-8"
     inkscape:window-y="-8"
     inkscape:window-maximized="1"
     inkscape:current-layer="Layer_1"
     inkscape:document-units="pt"
     units="pt"
     inkscape:pagecheckerboard="true"
     fit-margin-top="0"
     fit-margin-left="0"
     fit-margin-right="0"
     fit-margin-bottom="0" /><style
     type="text/css"
     id="style4557">
	.st0{fill:#0000FF;}
</style><g
     id="g4702"
     transform="matrix(0.70058805,0,0,0.70058805,25.088803,57.968777)"><path
       style="fill:#0000ff"
       inkscape:connector-curvature="0"
       id="path4561"
       d="M 150.3,2.1256715"
       class="st0" /><g
       transform="matrix(1.3333333,0,0,-1.3333333,33.410268,86.448176)"
       id="g3834"><path
         inkscape:connector-curvature="0"
         id="path3836"
         style="fill:#76b900;fill-opacity:1;fill-rule:nonzero;stroke:none"
         d="M 0,0 V 47.523 L -16.374,12.879 h -7.987 L -41.134,47.523 V 0 h -10.782 v 71.085 h 10.782 L -20.367,26.856 0,71.085 H 10.782 V 0 Z" /></g><g
       transform="matrix(1.3333333,0,0,-1.3333333,112.34903,10.970315)"
       id="g3838"><path
         inkscape:connector-curvature="0"
         id="path3840"
         style="fill:#76b900;fill-opacity:1;fill-rule:nonzero;stroke:none"
         d="m 0,0 c -2.995,3.295 -6.988,4.792 -12.08,4.792 h -13.079 v -51.716 h 13.079 c 5.092,0 9.085,1.497 12.08,4.792 3.694,4.094 3.794,11.781 3.794,21.566 C 3.794,-10.782 3.694,-4.094 0,0 m 7.389,-49.919 c -4.493,-4.493 -10.983,-6.689 -18.371,-6.689 h -24.959 v 71.085 h 24.959 c 7.388,0 13.878,-2.197 18.371,-6.69 7.687,-7.687 7.187,-18.07 7.187,-28.353 0,-10.285 0.5,-21.665 -7.187,-29.353" /></g><g
       transform="matrix(1.3333333,0,0,-1.3333333,147.75782,86.448176)"
       id="g3842"><path
         inkscape:connector-curvature="0"
         id="path3844"
         style="fill:#76b900;fill-opacity:1;fill-rule:nonzero;stroke:none"
         d="M 0,0 V 71.085 H 10.782 V 9.685 H 45.027 V 0 Z" /></g></g></svg>