<?xml version="1.0" encoding="UTF-8" standalone="no"?>
<!-- Generator: Adobe Illustrator 22.0.1, SVG Export Plug-In . SVG Version: 6.00 Build 0)  -->

<svg
   xmlns:dc="http://purl.org/dc/elements/1.1/"
   xmlns:cc="http://creativecommons.org/ns#"
   xmlns:rdf="http://www.w3.org/1999/02/22-rdf-syntax-ns#"
   xmlns:svg="http://www.w3.org/2000/svg"
   xmlns="http://www.w3.org/2000/svg"
   xmlns:sodipodi="http://sodipodi.sourceforge.net/DTD/sodipodi-0.dtd"
   xmlns:inkscape="http://www.inkscape.org/namespaces/inkscape"
   version="1.1"
   id="Layer_1"
   x="0px"
   y="0px"
   viewBox="0 0 170.66667 170.66667"
   xml:space="preserve"
   sodipodi:docname="module_icon.svg"
   inkscape:version="0.92.2 (5c3e80d, 2017-08-06)"
   width="128pt"
   height="128pt"
   inkscape:export-filename="C:\Projects\VisualStudioQtQmlTest\VisualStudioTest\resources\graphics\module_icon.png"
   inkscape:export-xdpi="72"
   inkscape:export-ydpi="72"><metadata
     id="metadata4568"><rdf:RDF><cc:Work
         rdf:about=""><dc:format>image/svg+xml</dc:format><dc:type
           rdf:resource="http://purl.org/dc/dcmitype/StillImage" /><dc:title /></cc:Work></rdf:RDF></metadata><defs
     id="defs4566" /><sodipodi:namedview
     pagecolor="#ffffff"
     bordercolor="#666666"
     borderopacity="1"
     objecttolerance="10"
     gridtolerance="10"
     guidetolerance="10"
     inkscape:pageopacity="0"
     inkscape:pageshadow="2"
     inkscape:window-width="1920"
     inkscape:window-height="1137"
     id="namedview4564"
     showgrid="false"
     inkscape:zoom="3.8143359"
     inkscape:cx="69.179864"
     inkscape:cy="77.06282"
     inkscape:window-x="1912"
     inkscape:window-y="-8"
     inkscape:window-maximized="1"
     inkscape:current-layer="Layer_1"
     inkscape:document-units="pt"
     units="pt"
     inkscape:pagecheckerboard="true"
     fit-margin-top="0"
     fit-margin-left="0"
     fit-margin-right="0"
     fit-margin-bottom="0" /><style
     type="text/css"
     id="style4557">
	.st0{fill:#0000FF;}
</style><path
     class="st0"
     d="m 95.187531,170.19983 c -11.844472,-3.22849 -19.256692,-8.89725 -23.143855,-12.45777 -4.596369,-4.2232 -8.935599,-8.18568 -8.191123,-12.40584 1.214559,-6.92866 14.628139,-5.46351 18.901475,-14.26594 3.318951,-6.96546 0.108072,-18.66278 -8.856032,-24.34055 -8.344106,-5.30287 -19.362426,-3.91675 -24.657569,1.46792 -6.56065,6.62434 -2.490607,17.23375 -7.635051,19.52976 -2.291831,1.01651 -5.473542,-0.0248 -13.435297,-6.16617 -5.950324,-4.60938 -14.339398,-11.80407 -23.1137977,-22.475866 3.9224591,-6.15629 7.5570237,-10.88507 10.1832357,-14.11347 6.618384,-8.14426 9.927576,-12.21639 11.109108,-13.44254 3.804742,-3.93614 5.931644,-5.44403 6.095847,-8.44855 0.229428,-3.40348 -2.084117,-7.08796 -5.143624,-8.71008 -3.533315,-1.8911 -5.419568,0.31177 -12.079133,-0.1263 -3.095502,-0.23518 -9.9364916,-0.73034 -13.3003575,-5.32468 -1.93495406,-2.66645 -1.93868426,-5.64392 -1.91767005,-9.2728 0.03599706,-1.38693 0.16723458,-8.35692 4.92186485,-15.76941 1.7917962,-2.79189 4.8251033,-7.51016 10.8309497,-10.07438 1.815023,-0.76708 5.277138,-2.27421 9.740085,-1.56869 5.259127,0.83625 10.389286,4.62819 12.317477,9.66956 2.128359,5.48389 -1.001651,8.79343 2.078083,12.95877 0.270638,0.34486 2.449244,3.18786 6.005058,3.60787 2.640434,0.35164 5.121939,-0.82491 7.839613,-2.94587 7.155898,-5.59804 8.733301,-12.4125 15.218259,-24.07444 1.63211,-2.9819802 3.749288,-6.4305202 6.294531,-10.1638102 0.07047,-0.0977 0.6425,-1.09616995 1.866755,-1.25017995 0.755697,-0.12171 1.516644,0.0579 2.163625,0.60106 C 89.533573,5.7622538 101.7821,12.853284 109.94851,21.076524 c 1.75128,1.78966 4.39844,4.60036 3.60899,6.92869 -1.01735,3.05561 -6.826,1.74678 -11.26124,4.70545 -6.456419,4.32005 -10.76502,18.0053 -3.452523,27.61773 7.028363,9.18342 20.778573,9.25638 27.205753,3.94836 0.87791,-0.70249 4.22158,-3.48535 4.93907,-7.8738 0.52705,-2.89032 -0.542,-4.18561 -0.27359,-9.49443 0.29017,-5.4418 1.49045,-6.28252 1.83456,-6.55375 1.57137,-0.94365 3.8647,0.19762 5.12643,0.81446 9.16503,4.78221 17.03381,12.4923 19.38335,14.78984 9.23847,9.00012 10.23481,9.57338 10.62614,12.01367 0.96108,5.45609 -2.79269,10.24724 -7.35689,16.1616 -6.67011,8.62735 -10.60827,9.04581 -16.60967,18.083396 -2.81364,4.20812 -5.98789,9.12173 -4.20513,12.71906 1.38243,2.71227 4.95698,3.5177 7.68663,4.1571 7.19783,1.64619 9.59914,-1.37335 14.16179,0.22247 5.33709,1.85955 8.4318,8.26683 9.11699,13.07678 1.3464,8.9332 -4.91361,15.55229 -7.45286,18.24875 -2.50401,2.64764 -9.42526,9.97747 -18.17498,8.32226 -3.91042,-0.75134 -8.73245,-3.42758 -10.81809,-7.83933 -1.97468,-4.257 0.069,-7.08946 -2.61263,-11.18942 -0.56827,-0.85802 -3.1472,-4.58608 -6.57857,-4.76717 -5.52752,-0.36142 -10.33988,8.57099 -14.44453,16.00828 -5.8507,10.7829 -7.63204,19.01134 -12.640025,19.47262 -1.105056,0.0917 -2.012187,-0.19386 -2.569954,-0.44931 z"
     id="path4559"
     inkscape:connector-curvature="0"
     style="fill:#ffffff;fill-opacity:1;stroke-width:0.6019994" /><path
     class="st0"
     d="M 150.3,-25.733336"
     id="path4561"
     inkscape:connector-curvature="0"
     style="fill:#0000ff" /><path
     style="fill:#ffffff;fill-opacity:1;stroke-width:0.6019994;stroke:none;stroke-opacity:1"
     inkscape:connector-curvature="0"
     id="path814"
     d="m 95.187531,170.19983 c -11.844472,-3.22849 -19.256692,-8.89725 -23.143855,-12.45777 -4.596369,-4.2232 -8.935599,-8.18568 -8.191123,-12.40584 1.214559,-6.92866 14.628139,-5.46351 18.901475,-14.26594 3.318951,-6.96546 0.108072,-18.66278 -8.856032,-24.34055 -8.344106,-5.30287 -19.362426,-3.91675 -24.657569,1.46792 -6.56065,6.62434 -2.490607,17.23375 -7.635051,19.52976 -2.291831,1.01651 -5.473542,-0.0248 -13.435297,-6.16617 -5.950324,-4.60938 -14.339398,-11.80407 -23.1137977,-22.475866 3.9224591,-6.15629 7.5570237,-10.88507 10.1832357,-14.11347 6.618384,-8.14426 9.927576,-12.21639 11.109108,-13.44254 3.804742,-3.93614 5.931644,-5.44403 6.095847,-8.44855 0.229428,-3.40348 -2.084117,-7.08796 -5.143624,-8.71008 -3.533315,-1.8911 -5.419568,0.31177 -12.079133,-0.1263 -3.095502,-0.23518 -9.9364916,-0.73034 -13.3003575,-5.32468 -1.93495406,-2.66645 -1.93868426,-5.64392 -1.91767005,-9.2728 0.03599706,-1.38693 0.16723458,-8.35692 4.92186485,-15.76941 1.7917962,-2.79189 4.8251033,-7.51016 10.8309497,-10.07438 1.815023,-0.76708 5.277138,-2.27421 9.740085,-1.56869 5.259127,0.83625 10.389286,4.62819 12.317477,9.66956 2.128359,5.48389 -1.001651,8.79343 2.078083,12.95877 0.270638,0.34486 2.449244,3.18786 6.005058,3.60787 2.640434,0.35164 5.121939,-0.82491 7.839613,-2.94587 7.155898,-5.59804 8.733301,-12.4125 15.218259,-24.07444 1.63211,-2.9819802 3.749288,-6.4305202 6.294531,-10.1638102 0.07047,-0.0977 0.6425,-1.09616995 1.866755,-1.25017995 0.755697,-0.12171 1.516644,0.0579 2.163625,0.60106 C 89.533573,5.7622538 101.7821,12.853284 109.94851,21.076524 c 1.75128,1.78966 4.39844,4.60036 3.60899,6.92869 -1.01735,3.05561 -6.826,1.74678 -11.26124,4.70545 -6.456419,4.32005 -10.76502,18.0053 -3.452523,27.61773 7.028363,9.18342 20.778573,9.25638 27.205753,3.94836 0.87791,-0.70249 4.22158,-3.48535 4.93907,-7.8738 0.52705,-2.89032 -0.542,-4.18561 -0.27359,-9.49443 0.29017,-5.4418 1.49045,-6.28252 1.83456,-6.55375 1.57137,-0.94365 3.8647,0.19762 5.12643,0.81446 9.16503,4.78221 17.03381,12.4923 19.38335,14.78984 9.23847,9.00012 10.23481,9.57338 10.62614,12.01367 0.96108,5.45609 -2.79269,10.24724 -7.35689,16.1616 -6.67011,8.62735 -10.60827,9.04581 -16.60967,18.083396 -2.81364,4.20812 -5.98789,9.12173 -4.20513,12.71906 1.38243,2.71227 4.95698,3.5177 7.68663,4.1571 7.19783,1.64619 9.59914,-1.37335 14.16179,0.22247 5.33709,1.85955 8.4318,8.26683 9.11699,13.07678 1.3464,8.9332 -4.91361,15.55229 -7.45286,18.24875 -2.50401,2.64764 -9.42526,9.97747 -18.17498,8.32226 -3.91042,-0.75134 -8.73245,-3.42758 -10.81809,-7.83933 -1.97468,-4.257 0.069,-7.08946 -2.61263,-11.18942 -0.56827,-0.85802 -3.1472,-4.58608 -6.57857,-4.76717 -5.52752,-0.36142 -10.33988,8.57099 -14.44453,16.00828 -5.8507,10.7829 -7.63204,19.01134 -12.640025,19.47262 -1.105056,0.0917 -2.012187,-0.19386 -2.569954,-0.44931 z"
     class="st0" /></svg>